<?xml version="1.0" encoding="utf-8"?>
<!-- Generator: Adobe Illustrator 25.4.1, SVG Export Plug-In . SVG Version: 6.00 Build 0)  -->
<svg version="1.1" id="Calque_1" xmlns="http://www.w3.org/2000/svg" xmlns:xlink="http://www.w3.org/1999/xlink" x="0px" y="0px"
	 viewBox="0 0 103 32" style="enable-background:new 0 0 103 32;" xml:space="preserve">
<style type="text/css">
	.st0{fill:#1A1A1A;}
	.st1{fill:none;stroke:#FFFFFF;stroke-opacity:0.14;}
	.st2{clip-path:url(#SVGID_00000182529949535908544010000015679496705427176101_);}
	.st3{fill-rule:evenodd;clip-rule:evenodd;fill:#EDEDED;}
	.st4{enable-background:new    ;}
	.st5{fill:#EDEDED;}
</style>
<path class="st0" d="M6,0h91c3.3,0,6,2.7,6,6v20c0,3.3-2.7,6-6,6H6c-3.3,0-6-2.7-6-6V6C0,2.7,2.7,0,6,0z"/>
<path class="st1" d="M6,0.5h91c3,0,5.5,2.5,5.5,5.5v20c0,3-2.5,5.5-5.5,5.5H6c-3,0-5.5-2.5-5.5-5.5V6C0.5,3,3,0.5,6,0.5z"/>
<g>
	<g>
		<defs>
			<rect id="SVGID_1_" x="10" y="10" width="12" height="12"/>
		</defs>
		<clipPath id="SVGID_00000148652949875790628190000002287610771095396503_">
			<use xlink:href="#SVGID_1_"  style="overflow:visible;"/>
		</clipPath>
		<g style="clip-path:url(#SVGID_00000148652949875790628190000002287610771095396503_);">
			<path class="st3" d="M16,10.7l6,10.5H10L16,10.7z"/>
		</g>
	</g>
</g>
<path class="st1" d="M31.5,1v30"/>
<g class="st4">
	<path class="st5" d="M50.3,21.1l0-5.9l-2.9,4.9h-1l-2.9-4.7v5.8h-2.1v-9.8h1.9l3.7,6.1l3.6-6.1h1.9l0,9.8H50.3z"/>
	<path class="st5" d="M62.1,13.5l-3.4,8c-0.3,0.9-0.8,1.5-1.3,1.8c-0.5,0.4-1.1,0.5-1.8,0.5c-0.4,0-0.8-0.1-1.2-0.2
		c-0.4-0.1-0.7-0.3-0.9-0.5l0.8-1.6c0.2,0.2,0.4,0.3,0.6,0.4c0.2,0.1,0.4,0.1,0.7,0.1c0.3,0,0.5-0.1,0.7-0.2
		c0.2-0.1,0.4-0.4,0.5-0.7l0-0.1l-3.3-7.6h2.3l2.1,5.1l2.1-5.1H62.1z"/>
	<path class="st5" d="M69.2,20.6c-0.8-0.4-1.4-1-1.9-1.8c-0.5-0.8-0.7-1.6-0.7-2.6c0-1,0.2-1.8,0.7-2.6c0.5-0.8,1.1-1.4,1.9-1.8
		c0.8-0.4,1.7-0.7,2.7-0.7c0.9,0,1.6,0.1,2.3,0.4c0.7,0.3,1.3,0.7,1.7,1.3l-1.5,1.3C73.8,13.4,73,13,72,13c-0.6,0-1.2,0.1-1.6,0.4
		c-0.5,0.3-0.8,0.6-1.1,1.1c-0.3,0.5-0.4,1-0.4,1.6c0,0.6,0.1,1.2,0.4,1.6c0.3,0.5,0.6,0.8,1.1,1.1c0.5,0.3,1,0.4,1.6,0.4
		c1,0,1.8-0.4,2.5-1.2l1.5,1.3c-0.5,0.6-1,1-1.7,1.3s-1.5,0.5-2.3,0.5C70.9,21.3,70,21.1,69.2,20.6z"/>
	<path class="st5" d="M86.9,11.3l-4.3,9.8h-2.2l-4.2-9.8h2.5l3,7l3-7H86.9z"/>
</g>
</svg>
